<mxfile host="app.diagrams.net" modified="2024-04-30T14:38:59.704Z" agent="Mozilla/5.0 (Windows NT 10.0; Win64; x64) AppleWebKit/537.36 (KHTML, like Gecko) Chrome/124.0.0.0 Safari/537.36" version="24.3.1" etag="3JdxdGY2gQm5lFE-0v2n" type="github">
  <diagram name="PÃ¡gina-1" id="85c-smpQOOGKcCwxW44T">
    <mxGraphModel>
      <root>
        <mxCell id="0" />
        <mxCell id="1" parent="0" />
      </root>
    </mxGraphModel>
  </diagram>
</mxfile>
